<mxfile host="app.diagrams.net" agent="Mozilla/5.0 (Macintosh; Intel Mac OS X 10_15_7) AppleWebKit/537.36 (KHTML, like Gecko) Chrome/129.0.0.0 Safari/537.36" version="24.7.17">
  <diagram name="Page-1" id="nLPISfNIHFEw8nKgW6fe">
    <mxGraphModel grid="1" page="1" gridSize="10" guides="1" tooltips="1" connect="1" arrows="1" fold="1" pageScale="1" pageWidth="850" pageHeight="1100" math="0" shadow="0">
      <root>
        <mxCell id="0" />
        <mxCell id="1" parent="0" />
        <mxCell id="zmJ1-3bUc11BDXLCLzOb-3" value="&lt;div style=&quot;text-align: justify;&quot;&gt;Kasus: Sistem Informasi Akuntansi pada &quot;Warung Makan Sederhana&quot;&lt;/div&gt;&lt;div style=&quot;text-align: justify;&quot;&gt;Latar Belakang&lt;/div&gt;&lt;div style=&quot;text-align: justify;&quot;&gt;&lt;br&gt;&lt;/div&gt;&lt;div style=&quot;text-align: justify;&quot;&gt;&quot;Warung Makan Sederhana&quot; adalah sebuah warung kecil yang menjual makanan dan minuman. Pemilik warung ingin mencatat transaksi penjualan dan pengeluaran secara manual, tetapi mengalami kesulitan dalam mengelola keuangan. Untuk itu, pemilik memutuskan untuk mengimplementasikan sistem informasi akuntansi sederhana.&lt;/div&gt;&lt;div style=&quot;text-align: justify;&quot;&gt;&lt;br&gt;&lt;/div&gt;&lt;div style=&quot;text-align: justify;&quot;&gt;Tujuan Sistem:&lt;/div&gt;&lt;div style=&quot;text-align: justify;&quot;&gt;Mencatat Transaksi Penjualan: Mempermudah pencatatan semua transaksi penjualan makanan dan minuman.&lt;/div&gt;&lt;div style=&quot;text-align: justify;&quot;&gt;Mencatat Pengeluaran: Mencatat biaya operasional seperti bahan baku, listrik, dan gaji karyawan.&lt;/div&gt;&lt;div style=&quot;text-align: justify;&quot;&gt;Menghasilkan Laporan Keuangan Sederhana: Membuat laporan laba rugi untuk melihat keuntungan atau kerugian.&lt;/div&gt;&lt;div style=&quot;text-align: justify;&quot;&gt;&lt;br&gt;&lt;/div&gt;&lt;div style=&quot;text-align: justify;&quot;&gt;Fitur Utama Sistem:&lt;/div&gt;&lt;div style=&quot;text-align: justify;&quot;&gt;&lt;br&gt;&lt;/div&gt;&lt;div style=&quot;text-align: justify;&quot;&gt;Modul Penjualan:&lt;/div&gt;&lt;div style=&quot;text-align: justify;&quot;&gt;Pencatatan setiap penjualan harian.&lt;/div&gt;&lt;div style=&quot;text-align: justify;&quot;&gt;Menampilkan total penjualan per hari.&lt;/div&gt;&lt;div style=&quot;text-align: justify;&quot;&gt;&lt;br&gt;&lt;/div&gt;&lt;div style=&quot;text-align: justify;&quot;&gt;Modul Pengeluaran:&lt;/div&gt;&lt;div style=&quot;text-align: justify;&quot;&gt;Pencatatan pengeluaran untuk biaya operasional.&lt;/div&gt;&lt;div style=&quot;text-align: justify;&quot;&gt;Menampilkan total pengeluaran per bulan.&lt;/div&gt;&lt;div style=&quot;text-align: justify;&quot;&gt;&lt;br&gt;&lt;/div&gt;&lt;div style=&quot;text-align: justify;&quot;&gt;Modul Laporan:&lt;/div&gt;&lt;div style=&quot;text-align: justify;&quot;&gt;Menghitung laba rugi berdasarkan total penjualan dan total pengeluaran.&lt;/div&gt;&lt;div style=&quot;text-align: justify;&quot;&gt;Menghasilkan laporan keuangan sederhana setiap bulan.&lt;/div&gt;&lt;div style=&quot;text-align: justify;&quot;&gt;Proses Kerja&lt;/div&gt;&lt;div style=&quot;text-align: justify;&quot;&gt;&lt;br&gt;&lt;/div&gt;&lt;div style=&quot;text-align: justify;&quot;&gt;Transaksi Penjualan:&lt;/div&gt;&lt;div style=&quot;text-align: justify;&quot;&gt;Pelanggan memesan makanan.&lt;/div&gt;&lt;div style=&quot;text-align: justify;&quot;&gt;Pemilik mencatat total penjualan di dalam sistem.&lt;/div&gt;&lt;div style=&quot;text-align: justify;&quot;&gt;Sistem mengupdate total penjualan harian.&lt;/div&gt;&lt;div style=&quot;text-align: justify;&quot;&gt;Pengeluaran:&lt;/div&gt;&lt;div style=&quot;text-align: justify;&quot;&gt;Pemilik mencatat biaya pembelian bahan baku dan biaya operasional lainnya.&lt;/div&gt;&lt;div style=&quot;text-align: justify;&quot;&gt;Sistem mengupdate total pengeluaran bulanan.&lt;/div&gt;&lt;div style=&quot;text-align: justify;&quot;&gt;Laporan Keuangan:&lt;/div&gt;&lt;div style=&quot;text-align: justify;&quot;&gt;Setiap akhir bulan, pemilik menghasilkan laporan laba rugi.&lt;/div&gt;&lt;div style=&quot;text-align: justify;&quot;&gt;Sistem menghitung total penjualan, total pengeluaran, dan laba bersih.&lt;/div&gt;&lt;div style=&quot;text-align: justify;&quot;&gt;&lt;br&gt;&lt;/div&gt;&lt;div style=&quot;text-align: justify;&quot;&gt;Manfaat Sistem:&lt;/div&gt;&lt;div style=&quot;text-align: justify;&quot;&gt;Efisiensi: Proses pencatatan transaksi menjadi lebih cepat.&lt;/div&gt;&lt;div style=&quot;text-align: justify;&quot;&gt;Akurasi: Mengurangi kesalahan dalam perhitungan manual.&lt;/div&gt;&lt;div style=&quot;text-align: justify;&quot;&gt;Analisis Keuangan: Memudahkan pemilik untuk mengetahui kondisi keuangan warung.&lt;/div&gt;&lt;div style=&quot;text-align: justify;&quot;&gt;&lt;br&gt;&lt;/div&gt;&lt;div style=&quot;text-align: justify;&quot;&gt;Kesimpulan&lt;/div&gt;&lt;div style=&quot;text-align: justify;&quot;&gt;Dengan mengimplementasikan sistem informasi akuntansi sederhana, &quot;Warung Makan Sederhana&quot; dapat mengelola keuangannya dengan lebih baik, meningkatkan efisiensi operasional, dan mendapatkan informasi yang lebih akurat untuk pengambilan keputusan.&lt;/div&gt;" style="rounded=0;whiteSpace=wrap;html=1;" vertex="1" parent="1">
          <mxGeometry x="110" y="-1080" width="460" height="780" as="geometry" />
        </mxCell>
      </root>
    </mxGraphModel>
  </diagram>
</mxfile>
